<svg xmlns="http://www.w3.org/2000/svg" width="48" height="48" viewBox="0 0 48 48" fill="none"><path d="M30 15C30 14.6022 30.158 14.2206 30.4393 13.9393C30.7206 13.658 31.1022 13.5 31.5 13.5H43.5C43.8978 13.5 44.2794 13.658 44.5607 13.9393C44.842 14.2206 45 14.6022 45 15C45 15.3978 44.842 15.7794 44.5607 16.0607C44.2794 16.342 43.8978 16.5 43.5 16.5H31.5C31.1022 16.5 30.7206 16.342 30.4393 16.0607C30.158 15.7794 30 15.3978 30 15ZM25.5 29.625C25.5 31.7136 24.6703 33.7166 23.1935 35.1935C21.7166 36.6703 19.7136 37.5 17.625 37.5H6C5.60218 37.5 5.22064 37.342 4.93934 37.0607C4.65804 36.7794 4.5 36.3978 4.5 36V12C4.5 11.6022 4.65804 11.2206 4.93934 10.9393C5.22064 10.658 5.60218 10.5 6 10.5H16.875C18.3096 10.5015 19.7104 10.9361 20.894 11.7469C22.0776 12.5576 22.9888 13.7068 23.5085 15.044C24.0282 16.3812 24.1321 17.8442 23.8066 19.2414C23.4812 20.6386 22.7415 21.9051 21.6844 22.875C22.8486 23.5754 23.8119 24.5651 24.4805 25.7479C25.1491 26.9306 25.5003 28.2663 25.5 29.625ZM7.5 21.75H16.875C17.969 21.75 19.0182 21.3154 19.7918 20.5418C20.5654 19.7682 21 18.719 21 17.625C21 16.531 20.5654 15.4818 19.7918 14.7082C19.0182 13.9346 17.969 13.5 16.875 13.5H7.5V21.75ZM22.5 29.625C22.5 28.9848 22.3739 28.3509 22.1289 27.7594C21.8839 27.168 21.5248 26.6305 21.0721 26.1779C20.6195 25.7252 20.082 25.3661 19.4906 25.1211C18.8991 24.8761 18.2652 24.75 17.625 24.75H7.5V34.5H17.625C18.2652 34.5 18.8991 34.3739 19.4906 34.1289C20.082 33.8839 20.6195 33.5248 21.0721 33.0721C21.5248 32.6195 21.8839 32.082 22.1289 31.4906C22.3739 30.8991 22.5 30.2652 22.5 29.625ZM46.5 28.5C46.5 28.8978 46.342 29.2794 46.0607 29.5607C45.7794 29.842 45.3978 30 45 30H31.6875C31.9699 31.0945 32.5557 32.087 33.3775 32.8632C34.1992 33.6393 35.2235 34.1675 36.3324 34.387C37.4412 34.6064 38.5895 34.5082 39.645 34.1036C40.7004 33.699 41.6201 33.0044 42.2981 32.1C42.4164 31.9424 42.5646 31.8097 42.7342 31.7094C42.9039 31.609 43.0916 31.5431 43.2867 31.5153C43.4817 31.4876 43.6804 31.4985 43.8713 31.5475C44.0621 31.5965 44.2415 31.6826 44.3991 31.8009C44.5566 31.9192 44.6894 32.0674 44.7897 32.2371C44.89 32.4067 44.9559 32.5944 44.9837 32.7895C45.0115 32.9846 45.0006 33.1832 44.9516 33.3741C44.9026 33.5649 44.8164 33.7443 44.6981 33.9019C43.4154 35.611 41.5663 36.8079 39.4818 37.2785C37.3973 37.749 35.2134 37.4625 33.3208 36.4702C31.4282 35.4779 29.9505 33.8446 29.152 31.8624C28.3534 29.8803 28.2863 27.6787 28.9624 25.6515C29.6386 23.6244 31.014 21.904 32.8426 20.7982C34.6712 19.6923 36.8336 19.2732 38.9429 19.6158C41.0522 19.9584 42.9708 21.0403 44.3553 22.6681C45.7399 24.2958 46.5001 26.3631 46.5 28.5ZM43.3125 27C42.982 25.7094 42.2314 24.5654 41.179 23.7485C40.1266 22.9316 38.8323 22.4882 37.5 22.4882C36.1677 22.4882 34.8734 22.9316 33.821 23.7485C32.7686 24.5654 32.018 25.7094 31.6875 27H43.3125Z" fill="white"></path></svg>