<svg xmlns="http://www.w3.org/2000/svg" width="48" height="48" viewBox="0 0 48 48" fill="none"><path d="M24 4.5C20.1433 4.5 16.3731 5.64366 13.1664 7.78634C9.95963 9.92903 7.46027 12.9745 5.98436 16.5377C4.50845 20.1008 4.12228 24.0216 4.8747 27.8043C5.62711 31.5869 7.4843 35.0615 10.2114 37.7886C12.9386 40.5157 16.4131 42.3729 20.1957 43.1253C23.9784 43.8777 27.8992 43.4916 31.4623 42.0156C35.0255 40.5397 38.071 38.0404 40.2137 34.8336C42.3564 31.6269 43.5 27.8567 43.5 24C43.4945 18.83 41.4383 13.8732 37.7826 10.2174C34.1268 6.56167 29.1701 4.50546 24 4.5ZM40.4344 22.5338C39.9569 22.5113 39.4788 22.5 39 22.5C36.2175 22.5008 33.4473 22.869 30.7613 23.595C30.1064 21.6517 29.2617 19.7777 28.2394 18C30.9056 16.3922 33.3192 14.3988 35.4019 12.0844C38.2917 14.8415 40.0803 18.5554 40.4344 22.5338ZM33.0525 10.2112C31.1789 12.27 29.0133 14.0426 26.625 15.4725C24.6247 12.657 22.1782 10.187 19.3819 8.16C21.6758 7.49034 24.0878 7.32695 26.4511 7.68112C28.8144 8.03529 31.0725 8.89856 33.0694 10.2112H33.0525ZM16.0594 9.54C19.1242 11.4701 21.7962 13.9627 23.9344 16.8862C20.1923 18.611 16.1204 19.5028 12 19.5C10.7283 19.4993 9.45806 19.4148 8.19751 19.2469C9.4518 15.1097 12.273 11.6264 16.0594 9.54ZM7.50001 24C7.49993 23.3961 7.53311 22.7927 7.59938 22.1925C9.05732 22.3972 10.5278 22.4999 12 22.5C16.7054 22.5044 21.3519 21.4537 25.5975 19.425C26.5329 21.0403 27.306 22.7442 27.9056 24.5119C26.3122 25.1104 24.7703 25.8378 23.295 26.6869C19.1795 29.0645 15.6507 32.3363 12.9694 36.2606C11.2475 34.7159 9.87048 32.8257 8.9281 30.7132C7.98571 28.6006 7.4991 26.3132 7.50001 24ZM15.375 38.0625C17.8094 34.4619 21.0306 31.4619 24.795 29.2894C26.0536 28.563 27.3669 27.9361 28.7231 27.4144C29.1873 29.474 29.4218 31.5787 29.4225 33.69C29.4235 35.7426 29.2041 37.7893 28.7681 39.795C26.5399 40.4681 24.1944 40.6618 21.886 40.3632C19.5776 40.0645 17.3586 39.2805 15.375 38.0625ZM32.0738 38.3869C32.3052 36.8351 32.4218 35.2683 32.4225 33.6994C32.4222 31.2709 32.1422 28.8506 31.5881 26.4862C34.0049 25.8341 36.4968 25.5025 39 25.5C39.475 25.5 39.9506 25.5119 40.4269 25.5356C40.1758 28.1928 39.2848 30.7496 37.8301 32.9873C36.3754 35.225 34.4003 37.077 32.0738 38.385V38.3869Z" fill="white"></path></svg>