<svg xmlns="http://www.w3.org/2000/svg" width="48" height="48" viewBox="0 0 48 48" fill="none"><path d="M34.5 18C35.7593 17.0555 36.6895 15.7388 37.1589 14.2363C37.6282 12.7337 37.6129 11.1216 37.1151 9.62829C36.6174 8.13495 35.6623 6.83609 34.3853 5.91568C33.1084 4.99528 31.5741 4.5 30 4.5H16.5C14.9259 4.5 13.3917 4.99528 12.1147 5.91568C10.8377 6.83609 9.88267 8.13495 9.38489 9.62829C8.88711 11.1216 8.87181 12.7337 9.34116 14.2363C9.81051 15.7388 10.7407 17.0555 12 18C11.0465 18.7146 10.277 19.646 9.75524 20.7172C9.23344 21.7884 8.97436 22.9685 8.99947 24.1597C9.02458 25.3509 9.33314 26.5191 9.89961 27.5673C10.4661 28.6156 11.2742 29.5138 12.2569 30.1875C11.1391 31.0374 10.2567 32.1585 9.69326 33.4446C9.12984 34.7308 8.90403 36.1396 9.03721 37.5374C9.17039 38.9353 9.65816 40.276 10.4543 41.4327C11.2505 42.5893 12.3287 43.5236 13.5869 44.1471C14.8451 44.7706 16.2416 45.0626 17.6442 44.9955C19.0467 44.9284 20.409 44.5045 21.6019 43.7637C22.7949 43.023 23.779 41.9901 24.4611 40.7627C25.1433 39.5354 25.5009 38.1542 25.5 36.75V30C26.2879 30.5909 27.1846 31.0209 28.1387 31.2654C29.0928 31.5098 30.0857 31.5639 31.0607 31.4246C32.0357 31.2853 32.9737 30.9554 33.8212 30.4536C34.6687 29.9518 35.4091 29.2879 36 28.5C36.591 27.7121 37.0209 26.8155 37.2654 25.8614C37.5098 24.9073 37.5639 23.9144 37.4246 22.9393C37.2853 21.9643 36.9554 21.0263 36.4536 20.1788C35.9518 19.3313 35.2879 18.5909 34.5 18ZM34.5 12C34.5 13.1935 34.0259 14.3381 33.182 15.182C32.3381 16.0259 31.1935 16.5 30 16.5H25.5V7.5H30C31.1935 7.5 32.3381 7.97411 33.182 8.81802C34.0259 9.66193 34.5 10.8065 34.5 12ZM12 12C12 10.8065 12.4741 9.66193 13.318 8.81802C14.1619 7.97411 15.3065 7.5 16.5 7.5H22.5V16.5H16.5C15.3065 16.5 14.1619 16.0259 13.318 15.182C12.4741 14.3381 12 13.1935 12 12ZM16.5 28.5C15.3065 28.5 14.1619 28.0259 13.318 27.182C12.4741 26.3381 12 25.1935 12 24C12 22.8065 12.4741 21.6619 13.318 20.818C14.1619 19.9741 15.3065 19.5 16.5 19.5H22.5V28.5H16.5ZM22.5 36.75C22.5 37.7884 22.1921 38.8034 21.6152 39.6667C21.0384 40.5301 20.2184 41.203 19.2591 41.6004C18.2998 41.9977 17.2442 42.1017 16.2258 41.8991C15.2074 41.6966 14.2719 41.1965 13.5377 40.4623C12.8035 39.7281 12.3035 38.7926 12.1009 37.7742C11.8983 36.7558 12.0023 35.7002 12.3996 34.7409C12.797 33.7816 13.4699 32.9617 14.3333 32.3848C15.1966 31.8079 16.2117 31.5 17.25 31.5H22.5V36.75ZM30 28.5C29.11 28.5 28.24 28.2361 27.4999 27.7416C26.7599 27.2471 26.1832 26.5443 25.8426 25.7221C25.502 24.8998 25.4128 23.995 25.5865 23.1221C25.7601 22.2492 26.1887 21.4474 26.818 20.818C27.4474 20.1887 28.2492 19.7601 29.1221 19.5865C29.995 19.4128 30.8998 19.5019 31.7221 19.8425C32.5444 20.1831 33.2472 20.7599 33.7416 21.4999C34.2361 22.24 34.5 23.11 34.5 24C34.5 25.1935 34.0259 26.3381 33.182 27.182C32.3381 28.0259 31.1935 28.5 30 28.5Z" fill="white"></path></svg>